<svg width="14" height="29" viewBox="0 0 14 29" fill="none" xmlns="http://www.w3.org/2000/svg">
<path d="M13.0085 8.27273V12.0511H0.755682V8.27273H13.0085ZM3.81889 29V6.31605C3.81889 4.92164 4.10677 3.76113 4.68253 2.83452C5.26728 1.90791 6.04995 1.2152 7.03054 0.756391C8.01113 0.297584 9.09967 0.06818 10.2962 0.06818C11.1418 0.06818 11.893 0.135652 12.5497 0.270596C13.2064 0.405539 13.6922 0.526988 14.0071 0.634943L13.0355 4.41335C12.8286 4.35038 12.5677 4.2874 12.2528 4.22443C11.938 4.15246 11.5871 4.11648 11.2003 4.11648C10.2917 4.11648 9.64844 4.33688 9.2706 4.7777C8.90175 5.20952 8.71733 5.83025 8.71733 6.63991V29H3.81889Z" fill="#E2E2E2"/>
</svg>
