<svg width="152" height="44" viewBox="0 0 152 44" fill="none" xmlns="http://www.w3.org/2000/svg">
<path d="M2.63672 42.2383C2.63672 42.1602 2.63672 42.0039 2.63672 41.7695C2.63672 41.4961 2.61719 41.2227 2.57812 40.9492C2.57812 40.6758 2.57812 40.4219 2.57812 40.1875C2.57812 39.9141 2.57812 39.7188 2.57812 39.6016C2.57812 37.8438 2.69531 36.125 2.92969 34.4453C3.20312 32.7266 3.47656 31.0273 3.75 29.3477C4.0625 27.6289 4.33594 25.9297 4.57031 24.25C4.84375 22.5312 4.98047 20.793 4.98047 19.0352C4.98047 18.8789 4.98047 18.5664 4.98047 18.0977C4.98047 17.6289 4.98047 17.1406 4.98047 16.6328C4.98047 16.0859 4.96094 15.5781 4.92188 15.1094C4.92188 14.6406 4.92188 14.3086 4.92188 14.1133C4.6875 13.7227 4.33594 13.4492 3.86719 13.293C3.4375 13.1367 3.00781 12.9805 2.57812 12.8242C2.14844 12.668 1.75781 12.4727 1.40625 12.2383C1.09375 12.0039 0.9375 11.6328 0.9375 11.125C0.9375 10.7734 1.03516 10.5 1.23047 10.3047C1.42578 10.0703 1.66016 9.89453 1.93359 9.77734C2.24609 9.66016 2.55859 9.60156 2.87109 9.60156C3.22266 9.5625 3.55469 9.54297 3.86719 9.54297C5.74219 9.54297 7.14844 10.1484 8.08594 11.3594C9.02344 12.5703 9.49219 14.1133 9.49219 15.9883C9.49219 17.7461 9.33594 19.4844 9.02344 21.2031C8.71094 22.8828 8.35938 24.5625 7.96875 26.2422C7.57813 27.9219 7.22656 29.6211 6.91406 31.3398C6.60156 33.0195 6.44531 34.7383 6.44531 36.4961V36.9648C6.60156 36.8086 6.85547 36.5547 7.20703 36.2031C7.59766 35.8516 7.98828 35.4805 8.37891 35.0898C8.80859 34.6602 9.19922 34.2695 9.55078 33.918C9.90234 33.5273 10.1367 33.2539 10.2539 33.0977C12.4023 30.5195 14.3359 27.8242 16.0547 25.0117C17.7734 22.1602 19.3555 19.4258 20.8008 16.8086C22.2461 14.1914 23.5938 11.7695 24.8438 9.54297C26.0938 7.27734 27.3438 5.40234 28.5938 3.91797C29.8438 2.43359 31.1328 1.45703 32.4609 0.988281C33.7891 0.480469 35.2539 0.675781 36.8555 1.57422C36.8555 2.04297 36.6797 2.39453 36.3281 2.62891C36.0156 2.82422 35.6445 2.98047 35.2148 3.09766C34.7852 3.21484 34.3555 3.35156 33.9258 3.50781C33.4961 3.625 33.1836 3.85938 32.9883 4.21094C29.2773 10.8516 25.2734 17.4141 20.9766 23.8984C16.7188 30.3438 12.1289 36.457 7.20703 42.2383C6.77734 42.5898 6.40625 42.8242 6.09375 42.9414C5.78125 43.0195 5.39062 43.0586 4.92188 43.0586C4.45312 43.0586 4.0625 43.0195 3.75 42.9414C3.4375 42.8242 3.06641 42.5898 2.63672 42.2383ZM22.1484 39.1914C22.1484 38.6445 22.207 38.1758 22.3242 37.7852C22.4414 37.3555 22.6562 36.8086 22.9688 36.1445C23.2422 35.7539 23.7305 35.0117 24.4336 33.918C25.1758 32.8242 25.9375 31.6719 26.7188 30.4609C27.5391 29.25 28.3008 28.1172 29.0039 27.0625C29.7461 25.9688 30.2539 25.207 30.5273 24.7773C30.8789 24.2695 31.1523 23.9961 31.3477 23.957C31.543 23.918 31.9141 23.8984 32.4609 23.8984C32.8125 23.8984 33.1836 23.918 33.5742 23.957C34.0039 23.9961 34.2773 24.2695 34.3945 24.7773C33.8477 26.1055 33.1055 27.375 32.168 28.5859C31.2695 29.7578 30.3711 30.9297 29.4727 32.1016C28.6133 33.2734 27.8516 34.4844 27.1875 35.7344C26.5234 36.9453 26.1914 38.2539 26.1914 39.6602C26.3477 39.6602 26.582 39.6797 26.8945 39.7188C27.2461 39.7578 27.6172 39.7969 28.0078 39.8359C28.3984 39.875 28.75 39.9141 29.0625 39.9531C29.4141 39.9922 29.668 39.9922 29.8242 39.9531C30.0586 39.9141 30.4492 39.8359 30.9961 39.7188C31.582 39.5625 32.1875 39.4062 32.8125 39.25C33.4766 39.0938 34.1016 38.9375 34.6875 38.7812C35.2734 38.625 35.6836 38.5078 35.918 38.4297C35.918 38.5078 35.918 38.6445 35.918 38.8398C35.957 38.9961 35.9766 39.1133 35.9766 39.1914C35.9766 39.9727 35.6055 40.6172 34.8633 41.125C34.1602 41.6328 33.3203 42.043 32.3438 42.3555C31.4062 42.6289 30.4297 42.8242 29.4141 42.9414C28.4375 43.0195 27.6758 43.0586 27.1289 43.0586C26.543 43.0586 25.9375 43 25.3125 42.8828C24.7266 42.7266 24.1992 42.4922 23.7305 42.1797C23.2617 41.8672 22.8711 41.4766 22.5586 41.0078C22.2852 40.5 22.1484 39.8945 22.1484 39.1914ZM39.1992 4.85547C39.707 4.85547 40.1758 4.875 40.6055 4.91406C41.0352 4.95312 41.4062 5.05078 41.7188 5.20703C42.0312 5.36328 42.2852 5.59766 42.4805 5.91016C42.6758 6.22266 42.7734 6.65234 42.7734 7.19922C42.7734 7.43359 42.7734 7.6875 42.7734 7.96094C42.7734 8.23437 42.7344 8.50781 42.6562 8.78125C42.6172 9.01562 42.5195 9.23047 42.3633 9.42578C42.207 9.58203 41.9531 9.66016 41.6016 9.66016C41.0547 9.66016 40.6055 9.46484 40.2539 9.07422C39.9414 8.68359 39.707 8.23437 39.5508 7.72656C39.3945 7.17969 39.2969 6.63281 39.2578 6.08594C39.2188 5.53906 39.1992 5.12891 39.1992 4.85547ZM37.207 40.3633C37.207 40.0117 37.207 39.7383 37.207 39.543C37.207 39.3477 37.2266 39.1719 37.2656 39.0156C37.3438 38.8203 37.4414 38.625 37.5586 38.4297C37.6758 38.2344 37.832 37.9805 38.0273 37.668C38.3398 37.1211 38.9258 36.1641 39.7852 34.7969C40.6445 33.4297 41.5625 31.9844 42.5391 30.4609C43.5156 28.9375 44.4336 27.4922 45.293 26.125C46.1914 24.7578 46.8164 23.8008 47.168 23.2539C47.207 23.2148 47.3047 23.1953 47.4609 23.1953C47.6562 23.1953 47.793 23.1953 47.8711 23.1953C47.9492 23.1953 48.0859 23.1953 48.2812 23.1953C48.4766 23.1953 48.5938 23.2148 48.6328 23.2539C48.6719 23.293 48.75 23.3906 48.8672 23.5469C49.0234 23.7031 49.1797 23.8789 49.3359 24.0742C49.5312 24.2305 49.6875 24.3867 49.8047 24.543C49.9609 24.6992 50.0781 24.7773 50.1562 24.7773C50.5078 24.7773 50.8789 24.6602 51.2695 24.4258C51.6602 24.1914 52.0508 23.9375 52.4414 23.6641C52.8711 23.3516 53.3008 23.0781 53.7305 22.8438C54.1602 22.6094 54.6094 22.4922 55.0781 22.4922C55.5859 22.4922 56.0547 22.6094 56.4844 22.8438C56.9141 23.0781 57.2852 23.3711 57.5977 23.7227C57.9102 24.0742 58.1445 24.4648 58.3008 24.8945C58.4961 25.3242 58.5938 25.7539 58.5938 26.1836C58.5938 27.082 58.457 27.9414 58.1836 28.7617C57.9492 29.582 57.6758 30.4023 57.3633 31.2227C57.0508 32.0039 56.7578 32.8047 56.4844 33.625C56.25 34.4062 56.1328 35.2266 56.1328 36.0859C56.1328 36.9453 56.2305 37.5703 56.4258 37.9609C56.6211 38.3125 57.168 38.4883 58.0664 38.4883C59.1211 38.4883 60.1172 38.332 61.0547 38.0195C62.0312 37.707 63.0273 37.5508 64.043 37.5508C64.043 38.4883 63.75 39.2695 63.1641 39.8945C62.6172 40.5195 61.9141 41.0273 61.0547 41.418C60.2344 41.7695 59.3359 42.0234 58.3594 42.1797C57.4219 42.2969 56.5625 42.3555 55.7812 42.3555C54.2969 42.3555 53.2031 41.9453 52.5 41.125C51.8359 40.2656 51.5039 39.1328 51.5039 37.7266C51.5039 36.7891 51.6602 35.9102 51.9727 35.0898C52.3242 34.2695 52.6953 33.4688 53.0859 32.6875C53.5156 31.9062 53.9062 31.125 54.2578 30.3438C54.6094 29.5625 54.7852 28.7227 54.7852 27.8242C54.7852 27.5898 54.7461 27.2773 54.668 26.8867C54.5898 26.4961 54.3359 26.3008 53.9062 26.3008C52.6172 26.3008 51.4453 26.7109 50.3906 27.5312C49.375 28.3516 48.4375 29.3867 47.5781 30.6367C46.7578 31.8867 45.9961 33.2344 45.293 34.6797C44.6289 36.125 43.9844 37.4727 43.3594 38.7227C42.7734 39.9727 42.207 41.0078 41.6602 41.8281C41.1133 42.6484 40.5469 43.0586 39.9609 43.0586C39.1406 43.0586 38.4766 42.8047 37.9688 42.2969C37.4609 41.7891 37.207 41.1445 37.207 40.3633ZM62.8711 39.1914C63.2227 36.9648 63.8867 34.9141 64.8633 33.0391C65.8398 31.1641 66.9531 29.543 68.2031 28.1758C69.4922 26.7695 70.8789 25.6172 72.3633 24.7188C73.8477 23.8203 75.293 23.2539 76.6992 23.0195C78.1055 22.7461 79.3945 22.8047 80.5664 23.1953C81.7773 23.5859 82.7539 24.3672 83.4961 25.5391C83.4961 26.4375 83.2812 27.2969 82.8516 28.1172C82.4609 28.9375 82.0117 29.7578 81.5039 30.5781C81.0352 31.3984 80.5859 32.2383 80.1562 33.0977C79.7656 33.957 79.5703 34.875 79.5703 35.8516C79.5703 36.8672 79.7852 37.6875 80.2148 38.3125C80.6836 38.8984 81.4844 39.1914 82.6172 39.1914C83.5547 39.1914 84.4531 39.0547 85.3125 38.7812C86.2109 38.5078 87.1094 38.3711 88.0078 38.3711C88.1641 38.3711 88.418 38.3906 88.7695 38.4297C89.1602 38.4297 89.4141 38.4297 89.5312 38.4297C89.0625 39.0938 88.457 39.6602 87.7148 40.1289C86.9727 40.5977 86.1914 41.0078 85.3711 41.3594C84.5508 41.6719 83.6914 41.9062 82.793 42.0625C81.9336 42.2188 81.1328 42.2969 80.3906 42.2969C79.6875 42.2969 79.0625 42.1406 78.5156 41.8281C77.9688 41.5156 77.5 41.1055 77.1094 40.5977C76.7188 40.0898 76.4062 39.5234 76.1719 38.8984C75.9766 38.2344 75.8789 37.5898 75.8789 36.9648C75.293 37.6289 74.6484 38.332 73.9453 39.0742C73.2812 39.7773 72.5586 40.4219 71.7773 41.0078C71.0352 41.5938 70.2148 42.082 69.3164 42.4727C68.457 42.8633 67.5586 43.0586 66.6211 43.0586C65.6055 43.0586 64.7266 42.6875 63.9844 41.9453C63.2422 41.1641 62.8711 40.2461 62.8711 39.1914ZM66.7383 37.375C66.7383 37.6875 66.7383 38.0391 66.7383 38.4297C66.7773 38.8203 67.0312 39.0742 67.5 39.1914C68.4766 38.957 69.5898 38.4492 70.8398 37.668C72.0898 36.8477 73.2617 35.9102 74.3555 34.8555C75.4492 33.7617 76.3672 32.6094 77.1094 31.3984C77.8516 30.1484 78.2227 28.957 78.2227 27.8242C78.2227 27.7461 78.2031 27.6289 78.1641 27.4727C78.1641 27.2773 78.1641 27.1406 78.1641 27.0625C76.8359 27.0625 75.4883 27.3359 74.1211 27.8828C72.7539 28.4297 71.5234 29.1914 70.4297 30.168C69.3359 31.1055 68.4375 32.1992 67.7344 33.4492C67.0703 34.6992 66.7383 36.0078 66.7383 37.375ZM100.723 38.4883C100.723 37.3164 100.957 36.2422 101.426 35.2656C101.934 34.25 102.48 33.293 103.066 32.3945C103.652 31.4961 104.18 30.5977 104.648 29.6992C105.156 28.8008 105.41 27.8438 105.41 26.8281C105.41 26.5938 105.391 26.3203 105.352 26.0078C105.352 25.6562 105.312 25.3242 105.234 25.0117C105.195 24.6992 105.078 24.4453 104.883 24.25C104.727 24.0156 104.512 23.8984 104.238 23.8984C104.199 23.8984 104.121 23.918 104.004 23.957C103.926 23.957 103.887 23.9766 103.887 24.0156C103.34 24.7578 102.676 25.5977 101.895 26.5352C101.152 27.4336 100.352 28.332 99.4922 29.2305C98.6328 30.1289 97.793 30.9883 96.9727 31.8086C96.1523 32.6289 95.4102 33.3125 94.7461 33.8594C94.2773 34.2891 93.6328 34.875 92.8125 35.6172C92.0312 36.3594 91.2305 37.1016 90.4102 37.8438C89.6289 38.5469 88.9258 39.1719 88.3008 39.7188C87.7148 40.2656 87.3828 40.5391 87.3047 40.5391L84.6094 38.2539C84.9609 38.2539 85.3125 38.1758 85.6641 38.0195C85.9766 37.8633 86.2891 37.6875 86.6016 37.4922C88.9453 35.9297 91.0547 34.1328 92.9297 32.1016C94.8438 30.0703 96.7188 27.8828 98.5547 25.5391C98.6328 25.4219 98.8281 25.0898 99.1406 24.543C99.4922 23.957 99.8633 23.3125 100.254 22.6094C100.645 21.8672 101.035 21.1445 101.426 20.4414C101.816 19.6992 102.109 19.1133 102.305 18.6836C102.539 18.1758 102.676 17.7656 102.715 17.4531C102.793 17.1406 102.852 16.9062 102.891 16.75C102.969 16.5547 103.086 16.418 103.242 16.3398C103.398 16.2617 103.73 16.2227 104.238 16.2227C104.316 16.2227 104.492 16.2422 104.766 16.2812C105.078 16.3203 105.273 16.3594 105.352 16.3984C105.859 17.4531 106.309 18.3906 106.699 19.2109C107.09 20.0312 107.422 20.8125 107.695 21.5547C107.969 22.2578 108.164 22.9805 108.281 23.7227C108.438 24.4648 108.516 25.2852 108.516 26.1836C108.008 27.4727 107.441 28.8008 106.816 30.168C106.191 31.4961 105.664 32.7656 105.234 33.9766C104.805 35.1875 104.531 36.2812 104.414 37.2578C104.336 38.2344 104.551 39.0156 105.059 39.6016C105.605 40.1484 106.504 40.4414 107.754 40.4805C109.043 40.5195 110.859 40.1875 113.203 39.4844C113.828 39.7969 113.887 40.1875 113.379 40.6562C112.871 41.0859 112.09 41.4961 111.035 41.8867C110.02 42.2773 108.887 42.6094 107.637 42.8828C106.426 43.1172 105.41 43.1758 104.59 43.0586C103.848 43.0586 103.223 42.9414 102.715 42.707C102.246 42.4336 101.855 42.082 101.543 41.6523C101.27 41.2227 101.055 40.7344 100.898 40.1875C100.781 39.6406 100.723 39.0742 100.723 38.4883ZM110.215 39.1914C110.215 38.6445 110.273 38.1758 110.391 37.7852C110.508 37.3555 110.723 36.8086 111.035 36.1445C111.309 35.7539 111.797 35.0117 112.5 33.918C113.242 32.8242 114.004 31.6719 114.785 30.4609C115.605 29.25 116.367 28.1172 117.07 27.0625C117.812 25.9688 118.32 25.207 118.594 24.7773C118.945 24.2695 119.219 23.9961 119.414 23.957C119.609 23.918 119.98 23.8984 120.527 23.8984C120.879 23.8984 121.25 23.918 121.641 23.957C122.07 23.9961 122.344 24.2695 122.461 24.7773C121.914 26.1055 121.172 27.375 120.234 28.5859C119.336 29.7578 118.438 30.9297 117.539 32.1016C116.68 33.2734 115.918 34.4844 115.254 35.7344C114.59 36.9453 114.258 38.2539 114.258 39.6602C114.414 39.6602 114.648 39.6797 114.961 39.7188C115.312 39.7578 115.684 39.7969 116.074 39.8359C116.465 39.875 116.816 39.9141 117.129 39.9531C117.48 39.9922 117.734 39.9922 117.891 39.9531C118.125 39.9141 118.516 39.8359 119.062 39.7188C119.648 39.5625 120.254 39.4062 120.879 39.25C121.543 39.0938 122.168 38.9375 122.754 38.7812C123.34 38.625 123.75 38.5078 123.984 38.4297C123.984 38.5078 123.984 38.6445 123.984 38.8398C124.023 38.9961 124.043 39.1133 124.043 39.1914C124.043 39.9727 123.672 40.6172 122.93 41.125C122.227 41.6328 121.387 42.043 120.41 42.3555C119.473 42.6289 118.496 42.8242 117.48 42.9414C116.504 43.0195 115.742 43.0586 115.195 43.0586C114.609 43.0586 114.004 43 113.379 42.8828C112.793 42.7266 112.266 42.4922 111.797 42.1797C111.328 41.8672 110.938 41.4766 110.625 41.0078C110.352 40.5 110.215 39.8945 110.215 39.1914ZM127.266 4.85547C127.773 4.85547 128.242 4.875 128.672 4.91406C129.102 4.95312 129.473 5.05078 129.785 5.20703C130.098 5.36328 130.352 5.59766 130.547 5.91016C130.742 6.22266 130.84 6.65234 130.84 7.19922C130.84 7.43359 130.84 7.6875 130.84 7.96094C130.84 8.23437 130.801 8.50781 130.723 8.78125C130.684 9.01562 130.586 9.23047 130.43 9.42578C130.273 9.58203 130.02 9.66016 129.668 9.66016C129.121 9.66016 128.672 9.46484 128.32 9.07422C128.008 8.68359 127.773 8.23437 127.617 7.72656C127.461 7.17969 127.363 6.63281 127.324 6.08594C127.285 5.53906 127.266 5.12891 127.266 4.85547ZM124.863 39.1914C125.215 36.9648 125.879 34.9141 126.855 33.0391C127.832 31.1641 128.945 29.543 130.195 28.1758C131.484 26.7695 132.871 25.6172 134.355 24.7188C135.84 23.8203 137.285 23.2539 138.691 23.0195C140.098 22.7461 141.387 22.8047 142.559 23.1953C143.77 23.5859 144.746 24.3672 145.488 25.5391C145.488 26.4375 145.273 27.2969 144.844 28.1172C144.453 28.9375 144.004 29.7578 143.496 30.5781C143.027 31.3984 142.578 32.2383 142.148 33.0977C141.758 33.957 141.562 34.875 141.562 35.8516C141.562 36.8672 141.777 37.6875 142.207 38.3125C142.676 38.8984 143.477 39.1914 144.609 39.1914C145.547 39.1914 146.445 39.0547 147.305 38.7812C148.203 38.5078 149.102 38.3711 150 38.3711C150.156 38.3711 150.41 38.3906 150.762 38.4297C151.152 38.4297 151.406 38.4297 151.523 38.4297C151.055 39.0938 150.449 39.6602 149.707 40.1289C148.965 40.5977 148.184 41.0078 147.363 41.3594C146.543 41.6719 145.684 41.9062 144.785 42.0625C143.926 42.2188 143.125 42.2969 142.383 42.2969C141.68 42.2969 141.055 42.1406 140.508 41.8281C139.961 41.5156 139.492 41.1055 139.102 40.5977C138.711 40.0898 138.398 39.5234 138.164 38.8984C137.969 38.2344 137.871 37.5898 137.871 36.9648C137.285 37.6289 136.641 38.332 135.938 39.0742C135.273 39.7773 134.551 40.4219 133.77 41.0078C133.027 41.5938 132.207 42.082 131.309 42.4727C130.449 42.8633 129.551 43.0586 128.613 43.0586C127.598 43.0586 126.719 42.6875 125.977 41.9453C125.234 41.1641 124.863 40.2461 124.863 39.1914ZM128.73 37.375C128.73 37.6875 128.73 38.0391 128.73 38.4297C128.77 38.8203 129.023 39.0742 129.492 39.1914C130.469 38.957 131.582 38.4492 132.832 37.668C134.082 36.8477 135.254 35.9102 136.348 34.8555C137.441 33.7617 138.359 32.6094 139.102 31.3984C139.844 30.1484 140.215 28.957 140.215 27.8242C140.215 27.7461 140.195 27.6289 140.156 27.4727C140.156 27.2773 140.156 27.1406 140.156 27.0625C138.828 27.0625 137.48 27.3359 136.113 27.8828C134.746 28.4297 133.516 29.1914 132.422 30.168C131.328 31.1055 130.43 32.1992 129.727 33.4492C129.062 34.6992 128.73 36.0078 128.73 37.375Z" fill="#5A84E1"/>
</svg>
